Coordinates
version=1
nRows=21
nColumns=12
inDegrees=yes

Units are S.I. units (second, meters, Newtons, ...)
Angles are in degrees

endheader
time	SC_y	SC_z	SC_x	AC_y	AC_z	AC_x	GH_y	GH_z	GH_yy	EL_x	PS_y
       0.0               -26.6           7.48          34.12          46.87         -15.39          14.42          93.95          53.98         -53.34          122.6          55.76
    0.0266               -26.6          7.483          34.11          46.87         -15.39          14.42          93.93          53.98         -53.32          122.6          55.77
    0.0532               -26.6          7.487          34.11          46.87         -15.39          14.41           93.9          53.98          -53.3          122.6          55.79
   0.07981               -26.6          7.491          34.11          46.87         -15.39          14.41          93.88          53.98         -53.27          122.6           55.8
    0.1064               -26.6          7.495          34.11          46.88         -15.38           14.4          93.85          53.98         -53.25          122.6          55.81
     0.133               -26.6            7.5           34.1          46.88         -15.38           14.4          93.82          53.98         -53.22          122.6          55.83
    0.1596              -26.61          7.504           34.1          46.88         -15.38          14.39          93.79          53.98         -53.19          122.6          55.84
    0.1862              -26.61          7.509           34.1          46.88         -15.37          14.38          93.76          53.98         -53.16          122.6          55.86
    0.2128              -26.61          7.515          34.09          46.89         -15.37          14.38          93.72          53.98         -53.13          122.6          55.88
    0.2394              -26.61          7.521          34.09          46.89         -15.37          14.37          93.69          53.98         -53.09          122.6           55.9
     0.266              -26.61          7.527          34.09          46.89         -15.36          14.36          93.65          53.98         -53.06          122.6          55.92
    0.2926              -26.62          7.534          34.08           46.9         -15.36          14.35           93.6          53.98         -53.01          122.6          55.94
    0.3192              -26.62          7.541          34.08           46.9         -15.35          14.34          93.56          53.98         -52.97          122.6          55.96
    0.3458              -26.62          7.549          34.07          46.91         -15.35          14.33          93.51          53.98         -52.92          122.6          55.99
    0.3724              -26.63          7.558          34.07          46.91         -15.34          14.32          93.45          53.98         -52.87          122.6          56.02
     0.399              -26.63          7.567          34.06          46.92         -15.33          14.31          93.39          53.98         -52.82          122.6          56.05
    0.4256              -26.64          7.577          34.06          46.92         -15.33           14.3          93.33          53.98         -52.75          122.6          56.08
    0.4522              -26.64          7.588          34.05          46.93         -15.32          14.28          93.26          53.98         -52.69          122.6          56.12
    0.4788              -26.64            7.6          34.04          46.93         -15.31          14.27          93.18          53.98         -52.62          122.6          56.16
    0.5054              -26.65          7.613          34.04          46.94          -15.3          14.25           93.1          53.99         -52.54          122.6           56.2
     0.532              -26.66          7.628          34.03          46.95         -15.29          14.23          93.01          53.99         -52.45          122.6          56.25
